#N canvas 1366 -56 1250 429 10;
#X text 24 12 en entrée;
#X text 917 34 en sortie;
#X text 54 62 osc qte de personne par zones;
#X text 325 81 clones zone etats;
#X text 338 98 prend des règles d´états en entrée;
#X text 337 113 interpole entre ces êtat;
#X text 918 68 array DMX 512? valeurs;
#X text 336 131 donne une valeur cuite;
#X text 700 63 mappings des lx;
#X obj 489 63 s states_params_update;
#X obj 489 44 t b;
#X obj 324 22 text define states_params -k;
#X obj 51 331 r cooked_0;
#X floatatom 51 352 5 0 0 0 - - -, f 5;
#X obj 333 169 clone abs_state_param 5;
#X floatatom 158 351 5 0 0 0 - - -, f 5;
#X floatatom 270 352 5 0 0 0 - - -, f 5;
#X floatatom 376 350 5 0 0 0 - - -, f 5;
#X floatatom 496 355 5 0 0 0 - - -, f 5;
#X obj 158 330 r cooked_1;
#X obj 270 331 r cooked_2;
#X obj 376 330 r cooked_3;
#X obj 496 334 r cooked_4;
#X floatatom 50 287 5 0 0 0 - - -, f 5;
#X obj 50 310 s active_state_0;
#X floatatom 157 286 5 0 0 0 - - -, f 5;
#X floatatom 268 284 5 0 0 0 - - -, f 5;
#X floatatom 375 287 5 0 0 0 - - -, f 5;
#X floatatom 495 290 5 0 0 0 - - -, f 5;
#X obj 157 309 s active_state_1;
#X obj 268 307 s active_state_2;
#X obj 375 310 s active_state_3;
#X obj 495 313 s active_state_4;
#N canvas 1918 274 450 300 random 0;
#X obj 21 189 outlet;
#X obj 92 192 outlet;
#X obj 168 192 outlet;
#X obj 240 193 outlet;
#X obj 329 191 outlet;
#X obj 10 30 inlet;
#X obj 16 99 t b b b b b;
#X obj 59 68 bng 15 250 50 0 empty empty empty 17 7 0 10 -262144 -1
-1;
#X obj 342 150 random 4;
#X obj 248 152 random 4;
#X obj 172 152 random 4;
#X obj 97 150 random 4;
#X obj 20 153 random 4;
#X connect 5 0 6 0;
#X connect 6 0 12 0;
#X connect 6 1 11 0;
#X connect 6 2 10 0;
#X connect 6 3 9 0;
#X connect 6 4 8 0;
#X connect 7 0 6 0;
#X connect 8 0 4 0;
#X connect 9 0 3 0;
#X connect 10 0 2 0;
#X connect 11 0 1 0;
#X connect 12 0 0 0;
#X restore 53 206 pd random;
#X obj 63 180 bng 15 250 50 0 empty empty empty 17 7 0 10 -262144 -1
-1;
#X connect 10 0 9 0;
#X connect 11 1 10 0;
#X connect 12 0 13 0;
#X connect 19 0 15 0;
#X connect 20 0 16 0;
#X connect 21 0 17 0;
#X connect 22 0 18 0;
#X connect 23 0 24 0;
#X connect 25 0 29 0;
#X connect 26 0 30 0;
#X connect 27 0 31 0;
#X connect 28 0 32 0;
#X connect 33 0 23 0;
#X connect 33 1 25 0;
#X connect 33 2 26 0;
#X connect 33 3 27 0;
#X connect 33 4 28 0;
#X connect 34 0 33 0;
