#N canvas 1425 70 1176 667 10;
#X obj 580 51 r states_params_update;
#X msg 587 104 0;
#X msg 622 105 1;
#X obj 115 112 osc~ 1;
#X obj 26 161 snapshot~ 16;
#X obj 25 85 metro 16;
#X obj 26 65 tgl 15 0 empty empty empty 17 7 0 10 -262144 -1 -1 1 1
;
#X obj 27 25 loadbang;
#X msg 27 46 1;
#X obj 115 91 line~;
#X text 128 5 modulateur;
#X obj 26 183 * 0.5;
#X floatatom 117 415 5 0 0 0 - - -, f 5;
#X text 369 158 conversion entre 0 et 1;
#X text 506 366 multiplier par le max;
#X text 518 392 rajouter le minimum;
#X text 515 415 rajouter le minimum;
#X floatatom 27 482 5 0 0 0 - - -, f 5;
#X msg 820 98 symbol state-transition-time;
#X obj 820 168 text get states_params;
#X obj 820 124 text search states_params 0;
#X obj 820 149 + 1;
#X obj 807 558 text get states_params;
#X obj 807 514 text search states_params 0;
#X obj 807 539 + 1;
#X obj 806 358 makefilename state-%d-min-value;
#X obj 807 486 makefilename state-%d-max-value;
#X obj 575 220 v \$0_state_v;
#X obj 575 197 r \$0_state;
#X obj 580 74 v \$0_state_v;
#X obj 806 429 text get states_params;
#X obj 806 385 text search states_params 0;
#X obj 806 410 + 1;
#X floatatom 806 452 5 0 0 1 #0_state-min-value - #0_state-min-value
, f 5;
#X floatatom 807 582 5 0 0 1 #0_state-max-value - #0_state-max-value
, f 5;
#X floatatom 820 192 5 0 0 1 #0_state-transition-time - #0_state-transition-time
, f 5;
#X msg 655 105 2;
#X obj 575 173 s \$0_state;
#X obj 575 130 t f;
#X obj 575 151 change;
#X obj 735 25 r \$0_state;
#X floatatom 138 349 5 0 0 1 #0_state-transition-time #0_state-transition-time
-, f 5;
#X obj 117 393 line;
#X obj 117 372 pack;
#X floatatom 117 329 5 0 0 1 #0_state-min-value #0_state-min-value
-, f 5;
#X floatatom 116 294 5 0 0 0 - - -, f 5;
#X floatatom 137 228 5 0 0 1 #0_state-transition-time #0_state-transition-time
-, f 5;
#X obj 116 272 line;
#X obj 116 251 pack;
#X floatatom 115 163 5 0 0 1 #0_state-max-value #0_state-max-value
-, f 5;
#X obj 749 53 t a a a a;
#X obj 810 295 text get states_params;
#X obj 810 251 text search states_params 0;
#X obj 810 276 + 1;
#X floatatom 810 317 5 0 0 1 #0_state-modulation-rate - #0_state-modulation-rate
, f 5;
#X msg 824 68 t b;
#X obj 810 224 makefilename state-%d-modulation-rate;
#X floatatom 116 28 5 0 0 1 #0_state-modulation-rate #0_state-modulation-rate
-, f 5;
#X floatatom 136 49 5 0 0 1 #0_state-transition-time #0_state-transition-time
-, f 5;
#X obj 115 70 pack;
#X obj 27 203 + 0.5;
#X floatatom 121 185 5 0 0 1 #0_state-min-value #0_state-min-value
-, f 5;
#X obj 115 211 -;
#X obj 68 557 outlet;
#X obj 530 14 inlet;
#X obj 572 28 r active_state;
#X obj 566 4 r active_state_\$1;
#X obj 64 527 list prepend \$1;
#X obj 198 525 s cooked_\$1;
#X obj 28 449 + 0;
#X obj 27 322 * 0;
#X connect 0 0 29 0;
#X connect 1 0 38 0;
#X connect 2 0 38 0;
#X connect 3 0 4 0;
#X connect 4 0 11 0;
#X connect 5 0 4 0;
#X connect 6 0 5 0;
#X connect 7 0 8 0;
#X connect 8 0 6 0;
#X connect 9 0 3 0;
#X connect 11 0 60 0;
#X connect 12 0 69 1;
#X connect 17 0 67 0;
#X connect 17 0 68 0;
#X connect 18 0 20 0;
#X connect 19 0 35 0;
#X connect 20 0 21 0;
#X connect 21 0 19 0;
#X connect 22 0 34 0;
#X connect 23 0 24 0;
#X connect 24 0 22 0;
#X connect 25 0 31 0;
#X connect 26 0 23 0;
#X connect 28 0 27 0;
#X connect 29 0 38 0;
#X connect 30 0 33 0;
#X connect 31 0 32 0;
#X connect 32 0 30 0;
#X connect 36 0 38 0;
#X connect 38 0 39 0;
#X connect 39 0 37 0;
#X connect 40 0 50 0;
#X connect 41 0 43 1;
#X connect 42 0 12 0;
#X connect 43 0 42 0;
#X connect 44 0 43 0;
#X connect 45 0 70 1;
#X connect 46 0 48 1;
#X connect 47 0 45 0;
#X connect 48 0 47 0;
#X connect 49 0 62 0;
#X connect 50 0 26 0;
#X connect 50 1 25 0;
#X connect 50 2 56 0;
#X connect 50 3 55 0;
#X connect 51 0 54 0;
#X connect 52 0 53 0;
#X connect 53 0 51 0;
#X connect 55 0 18 0;
#X connect 56 0 52 0;
#X connect 57 0 59 0;
#X connect 58 0 59 1;
#X connect 59 0 9 0;
#X connect 60 0 70 0;
#X connect 61 0 62 1;
#X connect 62 0 48 0;
#X connect 64 0 38 0;
#X connect 65 0 38 0;
#X connect 66 0 38 0;
#X connect 67 0 63 0;
#X connect 69 0 17 0;
#X connect 70 0 69 0;
